<svg id="Grupo_50" data-name="Grupo 50" xmlns="http://www.w3.org/2000/svg" xmlns:xlink="http://www.w3.org/1999/xlink" width="217.6" height="56" viewBox="0 0 217.6 56">
    <defs>
        <clipPath id="clip-path">
            <rect id="Ret창ngulo_1804" data-name="Ret창ngulo 1804" width="217.6" height="56" fill="none"/>
        </clipPath>
    </defs>
    <g id="Grupo_49" data-name="Grupo 49" clip-path="url(#clip-path)">
        <path id="Caminho_612" data-name="Caminho 612" d="M220.79,26.24c-.075,6.744-4.211,13.488-13.376,13.488S194,33.132,194,26.277s4.4-13.749,13.413-13.749c8.98,0,13.45,6.893,13.376,13.712m-21.946.112c.112,4.285,2.421,8.868,8.569,8.868s8.458-4.62,8.532-8.905c.075-4.4-2.385-9.314-8.532-9.314s-8.682,4.956-8.569,9.352" transform="translate(-116.4 -7.517)" fill="#fff"/>
        <path id="Caminho_613" data-name="Caminho 613" d="M282.19,51.036V41.424c0-2.795-1.528-4.918-4.434-4.918a4.519,4.519,0,0,0-4.7,4.769v9.761h-4.508V32.63h4.359v2.124a7.882,7.882,0,0,1,6.036-2.384c4.322,0,7.787,3.242,7.787,9.016v9.65Z" transform="translate(-161.132 -19.422)" fill="#fff"/>
        <path id="Caminho_614" data-name="Caminho 614" d="M325.944,43.081c.3,2.272,2.272,3.912,5.476,3.912a7.579,7.579,0,0,0,4.918-1.714l2.906,2.869a11.283,11.283,0,0,1-7.9,2.98c-6.334,0-10.1-3.912-10.1-9.8,0-5.589,3.8-9.614,9.762-9.614,6.148,0,9.985,3.8,9.277,11.365Zm9.985-3.763c-.3-2.385-2.161-3.577-4.769-3.577a4.948,4.948,0,0,0-5.142,3.577Z" transform="translate(-192.749 -19.03)" fill="#fff"/>
        <path id="Caminho_615" data-name="Caminho 615" d="M391.414,32.443h4.508V50.812h-4.508V48.13c-1.043,2.161-3.912,3.2-5.962,3.242-5.44.037-9.464-3.317-9.464-9.762,0-6.334,4.21-9.65,9.576-9.612a6.744,6.744,0,0,1,5.85,2.98ZM379.78,41.609a5.262,5.262,0,0,0,5.441,5.589c7.154,0,7.154-11.14,0-11.14a5.231,5.231,0,0,0-5.441,5.551" transform="translate(-225.593 -19.198)" fill="#fff"/>
        <path id="Caminho_616" data-name="Caminho 616" d="M443.967,36.411c-2.385,0-5.178,1.267-5.178,4.658v9.688h-4.546V32.387h4.546v2.124a5.414,5.414,0,0,1,5.178-2.608Z" transform="translate(-260.545 -19.142)" fill="#fff"/>
        <path id="Caminho_617" data-name="Caminho 617" d="M476.226,40.027c-3.987,0-7.638-2.124-7.638-6.707V25.384H465.98V21.471h2.608V13.647h4.545v7.824h2.6v3.912H473.1v7.936c0,1.752,1.714,2.609,3.13,2.609Z" transform="translate(-279.588 -8.188)" fill="#fff"/>
        <path id="Caminho_618" data-name="Caminho 618" d="M504.02,13.832V23.3c1.639-2.124,3.651-2.012,5.738-2.012,5.216,0,7.527,3.54,7.527,8.942v9.687h-4.546v-9.65c0-3.353-1.75-4.769-4.173-4.769-2.682,0-4.545,1.528-4.545,4.285V39.914h-4.546V13.832Z" transform="translate(-299.684 -8.299)" fill="#fff"/>
        <path id="Caminho_619" data-name="Caminho 619" d="M206.013,114.718a2.56,2.56,0,0,1-.934,1.859,3.379,3.379,0,0,1-2.184.666,3.021,3.021,0,0,1-2.338-.937,3.707,3.707,0,0,1-.862-2.606v-.425a4.135,4.135,0,0,1,.394-1.853,2.849,2.849,0,0,1,1.132-1.228,3.333,3.333,0,0,1,1.712-.431,3.237,3.237,0,0,1,2.15.681,2.726,2.726,0,0,1,.938,1.894H204.5a1.487,1.487,0,0,0-.466-1.028,1.668,1.668,0,0,0-1.1-.328q-1.719,0-1.719,2.312v.45a2.892,2.892,0,0,0,.419,1.722,1.469,1.469,0,0,0,1.262.566,1.807,1.807,0,0,0,1.138-.306,1.431,1.431,0,0,0,.469-1.006Z" transform="translate(-119.816 -65.857)" fill="#fff"/>
        <path id="Caminho_620" data-name="Caminho 620" d="M233.839,116.081h3.469v1.212H232.32v-7.281h1.519Z" transform="translate(-139.392 -66.007)" fill="#fff"/>
        <rect id="Ret창ngulo_1803" data-name="Ret창ngulo 1803" width="1.512" height="7.281" transform="translate(104.509 44.005)" fill="#fff"/>
        <path id="Caminho_621" data-name="Caminho 621" d="M284.922,110.012l2.106,5.269,2.087-5.269H291.1v7.281h-1.512v-1.969l.156-3.562-2.2,5.531H286.5l-2.194-5.5.156,3.531v1.969h-1.512v-7.281Z" transform="translate(-169.768 -66.007)" fill="#fff"/>
        <path id="Caminho_622" data-name="Caminho 622" d="M324.641,115.737h-3.012l-.594,1.556H319.5l2.944-7.281h1.394l2.931,7.281h-1.538Zm-2.569-1.156H324.2l-1.062-2.762Z" transform="translate(-191.702 -66.007)" fill="#fff"/>
        <path id="Caminho_623" data-name="Caminho 623" d="M356.367,111.237h-2.412v6.056h-1.519v-6.056h-2.381v-1.225h6.312Z" transform="translate(-210.033 -66.007)" fill="#fff"/>
        <path id="Caminho_624" data-name="Caminho 624" d="M386.856,114.143h-3.138v1.938h3.675v1.212H382.2v-7.281h5.175v1.225h-3.656v1.688h3.138Z" transform="translate(-229.32 -66.007)" fill="#fff"/>
        <path id="Caminho_625" data-name="Caminho 625" d="M438.86,111.237h-2.412v6.056h-1.519v-6.056h-2.381v-1.225h6.312Z" transform="translate(-259.529 -66.007)" fill="#fff"/>
        <path id="Caminho_626" data-name="Caminho 626" d="M469.349,114.143h-3.138v1.938h3.675v1.212h-5.194v-7.281h5.175v1.225h-3.656v1.688h3.138Z" transform="translate(-278.816 -66.007)" fill="#fff"/>
        <path id="Caminho_627" data-name="Caminho 627" d="M499.608,114.718a2.56,2.56,0,0,1-.934,1.859,3.379,3.379,0,0,1-2.184.666,3.021,3.021,0,0,1-2.338-.937,3.707,3.707,0,0,1-.862-2.606v-.425a4.134,4.134,0,0,1,.394-1.853,2.85,2.85,0,0,1,1.132-1.228,3.333,3.333,0,0,1,1.712-.431,3.237,3.237,0,0,1,2.15.681,2.726,2.726,0,0,1,.938,1.894H498.1a1.487,1.487,0,0,0-.466-1.028,1.668,1.668,0,0,0-1.1-.328q-1.719,0-1.719,2.312v.45a2.891,2.891,0,0,0,.419,1.722,1.469,1.469,0,0,0,1.262.566,1.808,1.808,0,0,0,1.138-.306,1.432,1.432,0,0,0,.469-1.006Z" transform="translate(-295.973 -65.857)" fill="#fff"/>
        <path id="Caminho_628" data-name="Caminho 628" d="M532.228,117.293h-1.519v-2.969h-3.275v2.969h-1.519v-7.281h1.519v3.094h3.275v-3.094h1.519Z" transform="translate(-315.549 -66.007)" fill="#fff"/>
        <path id="Caminho_629" data-name="Caminho 629" d="M89.221,16.372a26.2,26.2,0,0,1,8.761-1.5q.415,0,.825.013a28.117,28.117,0,0,1,7.684,9.334,1.05,1.05,0,0,1-1.757,1.129,24.477,24.477,0,0,0-15.514-8.979" transform="translate(-53.533 -8.924)" fill="#fff"/>
        <path id="Caminho_630" data-name="Caminho 630" d="M16.45,32.2A28,28,0,0,1,42.831,4.246,28,28,0,1,0,28,56q.815,0,1.619-.046A27.98,27.98,0,0,1,16.45,32.2" transform="translate(0 0)" fill="#fff"/>
        <path id="Caminho_631" data-name="Caminho 631" d="M46.428,63.164A26.29,26.29,0,0,0,59.894,93.522,28.018,28.018,0,0,0,79.4,80.162a22.762,22.762,0,0,1-32.974-17" transform="translate(-27.301 -37.898)" fill="#fff"/>
        <path id="Caminho_632" data-name="Caminho 632" d="M108.761,62.4a1.05,1.05,0,0,0-2.046-.219,24.537,24.537,0,0,1-18.6,16.74,21.044,21.044,0,0,0,18.377-2.75,27.88,27.88,0,0,0,2.378-11.3q0-1.247-.107-2.466" transform="translate(-52.868 -36.871)" fill="#fff"/>
    </g>
</svg>
